<svg width="200.000000" height="32.533890" viewBox="0 0 200 32.5339" fill="none" xmlns="http://www.w3.org/2000/svg" xmlns:xlink="http://www.w3.org/1999/xlink">
	<desc>
			Created with Pixso.
	</desc>
	<defs>
		<clipPath id="clip29_3">
			<rect id="лого" width="200.000000" height="32.533886" fill="white" fill-opacity="0"/>
		</clipPath>
		<linearGradient x1="40.130638" y1="-0.916643" x2="60.635944" y2="14.745855" id="paint_linear_29_15_0" gradientUnits="userSpaceOnUse">
			<stop stop-color="#48D45C"/>
			<stop offset="1.000000" stop-color="#0A8E00"/>
		</linearGradient>
	</defs>
	<rect id="лого" width="200.000000" height="32.533886" fill="#FFFFFF" fill-opacity="0"/>
	<g clip-path="url(#clip29_3)">
		<path id="Vector" d="M184.73 0.17L184.73 15.39L181.13 15.39L181.13 6.81C181.13 6.41 181.13 5.99 181.13 5.55C181.13 5.11 181.19 4.64 181.32 4.15C181.16 4.57 180.99 4.99 180.78 5.39C180.61 5.73 180.43 6.06 180.22 6.38L175.53 14.36C175.45 14.49 175.35 14.61 175.25 14.73C175.14 14.85 175.02 14.97 174.89 15.07C174.75 15.17 174.61 15.25 174.45 15.31C174.29 15.37 174.13 15.41 173.96 15.41L171.29 15.41L171.29 0.17L174.89 0.17L174.89 8.68C174.89 9.08 174.89 9.5 174.89 9.95C174.84 10.42 174.76 10.89 174.65 11.35C174.81 10.94 174.98 10.53 175.18 10.13C175.35 9.79 175.54 9.46 175.74 9.13L180.44 1.16C180.52 1.03 180.61 0.91 180.72 0.79C180.82 0.66 180.94 0.55 181.08 0.45C181.21 0.35 181.36 0.27 181.52 0.21C181.67 0.15 181.84 0.11 182.01 0.11L184.73 0.17Z" fill="#100E0E" fill-opacity="1.000000" fill-rule="nonzero"/>
		<path id="Vector" d="M5.65 6.23C6.55 6.21 7.45 6.33 8.31 6.57C8.97 6.76 9.59 7.07 10.13 7.49C10.57 7.84 10.92 8.3 11.14 8.82C11.35 9.33 11.46 9.87 11.46 10.42C11.47 11.11 11.33 11.79 11.06 12.42C10.8 13.01 10.41 13.54 9.91 13.96C9.37 14.41 8.75 14.75 8.07 14.95C7.27 15.2 6.44 15.32 5.59 15.31L0 15.31L0 0.17L10.91 0.17L10.91 2.82L3.57 2.82L3.57 6.23L5.65 6.23ZM5.65 12.66C6.04 12.67 6.43 12.61 6.81 12.5C7.07 12.43 7.32 12.3 7.53 12.12C7.7 11.96 7.82 11.75 7.89 11.53C7.96 11.29 8 11.04 7.99 10.8C8 10.54 7.97 10.28 7.9 10.02C7.83 9.81 7.7 9.62 7.53 9.47C7.32 9.28 7.08 9.14 6.81 9.07C6.43 8.96 6.04 8.91 5.65 8.92L3.57 8.92L3.57 12.66L5.65 12.66Z" fill="#100E0E" fill-opacity="1.000000" fill-rule="nonzero"/>
		<path id="Vector" d="M28.51 15.31L25.74 15.31C25.47 15.32 25.21 15.25 24.99 15.1C24.8 14.96 24.65 14.77 24.55 14.55L23.65 11.9L17.78 11.9L16.87 14.55C16.78 14.76 16.64 14.95 16.46 15.09C16.25 15.25 15.98 15.33 15.71 15.33L12.91 15.33L18.87 0.17L22.54 0.17L28.51 15.31ZM22.82 9.47L21.39 5.38C21.29 5.11 21.18 4.8 21.06 4.45C20.94 4.09 20.82 3.7 20.7 3.29C20.59 3.71 20.48 4.1 20.37 4.46C20.25 4.82 20.14 5.14 20.03 5.39L18.66 9.47L22.82 9.47Z" fill="#100E0E" fill-opacity="1.000000" fill-rule="nonzero"/>
		<path id="Vector" d="M30.29 1.62C30.94 1.09 31.69 0.68 32.5 0.43C33.42 0.14 34.39 0 35.35 0.01C36.15 0 36.94 0.1 37.71 0.3C38.36 0.47 38.97 0.75 39.51 1.12C39.99 1.47 40.38 1.93 40.65 2.45C40.91 2.96 41.05 3.52 41.05 4.09C41.05 4.74 40.9 5.39 40.59 5.97C40.27 6.58 39.78 7.07 39.18 7.41C39.49 7.57 39.79 7.76 40.07 7.98C40.34 8.19 40.58 8.43 40.78 8.7C40.97 8.95 41.12 9.23 41.23 9.53C41.34 9.84 41.4 10.16 41.39 10.49C41.4 11.16 41.26 11.83 40.99 12.44C40.73 13.05 40.33 13.59 39.83 14.02C39.28 14.5 38.64 14.86 37.95 15.09C37.13 15.36 36.27 15.49 35.41 15.47C34.87 15.47 34.33 15.42 33.81 15.33C33.28 15.23 32.76 15.09 32.26 14.91C31.8 14.74 31.35 14.53 30.93 14.29C30.51 14.06 30.13 13.79 29.78 13.48L30.83 11.83C30.92 11.71 31.04 11.61 31.17 11.54C31.3 11.46 31.46 11.42 31.62 11.42C31.86 11.42 32.09 11.49 32.3 11.62L33.1 12.06C33.44 12.23 33.79 12.38 34.15 12.5C34.61 12.64 35.1 12.7 35.58 12.7C35.93 12.7 36.29 12.66 36.63 12.59C36.89 12.51 37.12 12.38 37.33 12.2C37.54 12.03 37.71 11.81 37.82 11.55C37.94 11.24 38 10.91 37.99 10.58C38 10.31 37.93 10.04 37.79 9.8C37.68 9.58 37.52 9.38 37.33 9.23C37.06 9.06 36.77 8.95 36.47 8.88C36.12 8.8 35.76 8.77 35.39 8.78L33.13 8.78L33.13 6.12L35.09 6.12C35.78 6.15 36.47 5.97 37.06 5.61C37.27 5.47 37.45 5.27 37.56 5.04C37.67 4.8 37.72 4.54 37.7 4.29C37.71 4.06 37.66 3.84 37.55 3.64C37.45 3.44 37.3 3.27 37.11 3.14C36.56 2.86 35.94 2.75 35.33 2.82C34.92 2.82 34.52 2.87 34.13 2.97C33.82 3.06 33.51 3.17 33.22 3.3L32.53 3.63C32.35 3.73 32.16 3.78 31.97 3.78C31.81 3.79 31.65 3.75 31.51 3.66C31.38 3.56 31.27 3.43 31.18 3.29L30.29 1.62Z" fill="#100E0E" fill-opacity="1.000000" fill-rule="nonzero"/>
		<path id="Vector" d="M66.75 0.17C67.65 0.16 68.54 0.25 69.42 0.46C70.07 0.61 70.69 0.89 71.24 1.28C71.7 1.62 72.06 2.08 72.27 2.61C72.49 3.15 72.6 3.72 72.59 4.3C72.59 4.63 72.54 4.96 72.44 5.28C72.34 5.6 72.18 5.9 71.98 6.16C71.75 6.45 71.47 6.71 71.16 6.92C70.79 7.17 70.39 7.37 69.96 7.51C70.82 7.67 71.6 8.08 72.22 8.68C72.75 9.26 73.03 10.01 73.02 10.8C73.02 11.41 72.89 12.03 72.63 12.59C72.37 13.15 71.99 13.64 71.51 14.04C70.97 14.47 70.36 14.8 69.7 15.01C68.9 15.25 68.07 15.37 67.23 15.35L61.08 15.35L61.08 0.17L66.75 0.17ZM64.66 2.82L64.66 6.54L66.52 6.54C66.88 6.55 67.24 6.52 67.59 6.46C67.88 6.42 68.15 6.32 68.4 6.17C68.62 6.04 68.8 5.84 68.91 5.6C69.04 5.31 69.09 5 69.08 4.68C69.09 4.38 69.05 4.07 68.95 3.78C68.86 3.56 68.72 3.36 68.52 3.21C68.31 3.03 68.06 2.89 67.79 2.82C67.44 2.79 67.1 2.79 66.75 2.82L64.66 2.82ZM67.18 12.66C67.57 12.67 67.96 12.61 68.34 12.48C68.6 12.39 68.85 12.23 69.04 12.03C69.19 11.84 69.28 11.62 69.32 11.39C69.39 11.16 69.42 10.92 69.42 10.68C69.43 10.42 69.39 10.17 69.32 9.93C69.25 9.71 69.12 9.52 68.94 9.37C68.73 9.2 68.48 9.08 68.22 9.02C67.85 8.93 67.47 8.89 67.1 8.9L64.66 8.9L64.66 12.66L67.18 12.66Z" fill="#100E0E" fill-opacity="1.000000" fill-rule="nonzero"/>
		<path id="Vector" d="M89.43 15.31L86.66 15.31C86.39 15.32 86.13 15.25 85.91 15.1C85.72 14.96 85.56 14.77 85.47 14.55L84.56 11.9L78.66 11.9L77.75 14.55C77.66 14.76 77.52 14.95 77.34 15.09C77.12 15.25 76.86 15.33 76.59 15.33L73.79 15.33L79.79 0.17L83.46 0.17L89.43 15.31ZM83.74 9.47L82.31 5.38C82.2 5.11 82.1 4.8 81.98 4.45C81.86 4.09 81.74 3.7 81.62 3.29C81.51 3.71 81.4 4.1 81.28 4.46C81.16 4.82 81.06 5.14 80.95 5.39L79.52 9.47L83.74 9.47Z" fill="#100E0E" fill-opacity="1.000000" fill-rule="nonzero"/>
		<path id="Vector" d="M103.75 15.31L100.16 15.31L100.16 9.24L99.06 9.24C98.74 9.24 98.44 9.31 98.16 9.45C97.84 9.65 97.57 9.94 97.4 10.28L95.24 14.13C95.03 14.49 94.73 14.79 94.36 14.99C93.95 15.21 93.49 15.32 93.03 15.31L90.36 15.31L93.52 10.14C93.73 9.8 93.99 9.48 94.3 9.21C94.59 8.96 94.93 8.75 95.3 8.6C94.82 8.46 94.37 8.25 93.96 7.98C93.59 7.74 93.26 7.44 92.99 7.09C92.73 6.76 92.54 6.39 92.42 5.99C92.28 5.56 92.22 5.11 92.23 4.66C92.22 4.06 92.35 3.46 92.59 2.92C92.84 2.37 93.21 1.89 93.67 1.5C94.21 1.06 94.84 0.72 95.51 0.51C96.31 0.27 97.15 0.16 97.99 0.17L103.75 0.17L103.75 15.31ZM100.16 6.6L100.16 2.82L97.99 2.82C97.59 2.81 97.19 2.87 96.82 2.98C96.55 3.07 96.31 3.21 96.11 3.41C95.94 3.57 95.82 3.78 95.75 4.01C95.69 4.24 95.65 4.47 95.66 4.71C95.65 4.97 95.68 5.23 95.75 5.48C95.81 5.71 95.94 5.93 96.11 6.09C96.31 6.28 96.55 6.42 96.82 6.49C97.2 6.6 97.59 6.65 97.99 6.64L100.16 6.6Z" fill="#100E0E" fill-opacity="1.000000" fill-rule="nonzero"/>
		<path id="Vector" d="M133.55 15.31L129.95 15.31L129.95 2.82L126.53 2.82C126.43 4.68 126.28 6.29 126.09 7.63C125.94 8.79 125.71 9.94 125.4 11.07C125.19 11.87 124.89 12.64 124.49 13.36C124.21 13.87 123.83 14.32 123.39 14.69C123 15 122.54 15.23 122.05 15.34C121.58 15.45 121.09 15.51 120.6 15.51C120.15 15.54 119.7 15.48 119.27 15.35C119.01 15.25 118.88 15.09 118.88 14.87L118.88 12.71L119.77 12.71C119.94 12.72 120.1 12.72 120.27 12.71C120.45 12.68 120.63 12.6 120.79 12.5C121 12.34 121.18 12.15 121.32 11.94C121.53 11.64 121.69 11.32 121.81 10.98C122.01 10.49 122.17 9.98 122.29 9.47C122.44 8.86 122.57 8.12 122.68 7.25C122.8 6.38 122.9 5.35 122.99 4.15C123.08 2.99 123.14 1.66 123.17 0.17L133.56 0.17L133.55 15.31Z" fill="#100E0E" fill-opacity="1.000000" fill-rule="nonzero"/>
		<path id="Vector" d="M150.65 0.17L150.65 15.34L147.05 15.34L147.05 6.81C147.05 6.41 147.05 6 147.05 5.56C147.05 5.13 147.1 4.66 147.19 4.15C147.03 4.57 146.85 4.99 146.65 5.39C146.48 5.73 146.3 6.06 146.09 6.38L141.4 14.26C141.32 14.39 141.22 14.52 141.12 14.63C141.01 14.76 140.89 14.87 140.76 14.97C140.62 15.07 140.48 15.15 140.32 15.21C140.16 15.27 140 15.3 139.83 15.3L137.16 15.3L137.16 0.17L140.76 0.17L140.76 8.66C140.76 9.06 140.76 9.47 140.76 9.91C140.74 10.38 140.69 10.85 140.61 11.31C140.77 10.9 140.95 10.49 141.15 10.09C141.31 9.75 141.5 9.42 141.71 9.09L146.35 1.22C146.44 1.08 146.54 0.96 146.65 0.85C146.76 0.72 146.88 0.61 147.01 0.51C147.15 0.41 147.3 0.33 147.45 0.27C147.61 0.21 147.78 0.18 147.95 0.18L150.65 0.17Z" fill="#100E0E" fill-opacity="1.000000" fill-rule="nonzero"/>
		<path id="Vector" d="M167.66 0.17L167.66 15.41L164.06 15.41L164.06 8.96L157.8 8.96L157.8 15.41L154.2 15.41L154.2 0.17L157.8 0.17L157.8 6.53L164.06 6.53L164.06 0.17L167.66 0.17Z" fill="#100E0E" fill-opacity="1.000000" fill-rule="nonzero"/>
		<path id="Vector" d="M199.98 15.37L196.41 15.37L196.41 9.28L195.3 9.28C194.99 9.28 194.68 9.35 194.41 9.49C194.08 9.69 193.82 9.98 193.65 10.32L191.49 14.18C191.28 14.54 190.97 14.84 190.61 15.05C190.2 15.27 189.74 15.38 189.28 15.37L186.61 15.37L189.77 10.18C189.98 9.84 190.24 9.52 190.54 9.25C190.84 9 191.18 8.79 191.54 8.64C191.07 8.5 190.62 8.29 190.21 8.02C189.84 7.77 189.51 7.47 189.24 7.12C188.98 6.78 188.79 6.4 188.66 6C188.53 5.57 188.47 5.12 188.48 4.67C188.47 4.04 188.61 3.42 188.88 2.85C189.12 2.33 189.48 1.87 189.92 1.5C190.46 1.06 191.09 0.74 191.76 0.54C192.56 0.29 193.4 0.16 194.24 0.17L199.98 0.17L199.98 15.37ZM196.41 6.62L196.41 2.82L194.22 2.82C193.83 2.81 193.43 2.87 193.05 2.98C192.78 3.07 192.54 3.21 192.34 3.41C192.17 3.58 192.05 3.79 191.98 4.02C191.92 4.25 191.89 4.49 191.89 4.72C191.89 4.98 191.92 5.23 191.98 5.48C192.04 5.71 192.17 5.93 192.34 6.09C192.54 6.28 192.79 6.42 193.05 6.49C193.43 6.6 193.83 6.65 194.22 6.64L196.41 6.62Z" fill="#100E0E" fill-opacity="1.000000" fill-rule="nonzero"/>
		<path id="Vector" d="M53.12 0.17L53.12 4.25C53.88 4.65 54.48 5.29 54.83 6.08C55.18 6.86 55.26 7.73 55.05 8.56C54.84 9.4 54.36 10.13 53.68 10.66C53.01 11.19 52.17 11.47 51.31 11.47C50.45 11.47 49.62 11.19 48.94 10.66C48.26 10.13 47.78 9.4 47.57 8.56C47.37 7.73 47.44 6.86 47.79 6.08C48.14 5.29 48.74 4.65 49.5 4.25L49.5 0.17C47.67 0.61 46.07 1.7 45 3.24C43.93 4.78 43.46 6.65 43.69 8.51C43.91 10.37 44.81 12.08 46.21 13.33C47.62 14.57 49.43 15.26 51.31 15.26C53.19 15.26 55 14.57 56.41 13.33C57.81 12.08 58.71 10.37 58.94 8.51C59.16 6.65 58.69 4.78 57.62 3.24C56.55 1.7 54.95 0.61 53.12 0.17L53.12 0.17Z" fill="url(#paint_linear_29_15_0)" fill-opacity="1.000000" fill-rule="nonzero"/>
		<path id="Vector" d="M51.31 6.11C51.18 6.11 51.06 6.05 50.96 5.96C50.87 5.87 50.82 5.74 50.82 5.61L50.82 0.67C50.82 0.61 50.83 0.54 50.85 0.48C50.88 0.42 50.91 0.36 50.96 0.32C51 0.27 51.06 0.23 51.12 0.21C51.18 0.18 51.25 0.17 51.31 0.17C51.44 0.17 51.57 0.22 51.66 0.31C51.75 0.4 51.8 0.53 51.8 0.66L51.8 5.61C51.8 5.74 51.75 5.87 51.66 5.96C51.57 6.05 51.44 6.11 51.31 6.11Z" fill="#100E0E" fill-opacity="1.000000" fill-rule="nonzero"/>
		<path id="Vector" d="M53.12 3.89L53.12 4.87C53.74 5.26 54.2 5.84 54.46 6.52C54.71 7.19 54.74 7.94 54.54 8.63C54.33 9.32 53.91 9.93 53.33 10.37C52.74 10.8 52.04 11.04 51.31 11.04C50.59 11.04 49.88 10.8 49.3 10.37C48.72 9.93 48.29 9.32 48.09 8.63C47.88 7.94 47.91 7.19 48.16 6.52C48.42 5.84 48.89 5.26 49.5 4.87L49.5 3.95C48.63 4.36 47.93 5.06 47.51 5.92C47.09 6.77 46.98 7.75 47.19 8.68C47.4 9.62 47.92 10.45 48.67 11.05C49.42 11.64 50.35 11.97 51.31 11.97C52.27 11.97 53.2 11.64 53.95 11.05C54.7 10.45 55.22 9.62 55.43 8.68C55.65 7.75 55.53 6.77 55.11 5.92C54.69 5.06 53.99 4.36 53.12 3.95L53.12 3.89Z" fill="#100E0E" fill-opacity="1.000000" fill-rule="nonzero"/>
		<path id="Vector" d="M67.02 23.42L67.02 30.72L66.02 30.72L66.02 25.54C66.02 25.39 66.02 25.24 66.02 25.08C66.02 24.92 66.02 24.74 66.02 24.57C66.02 24.73 65.9 24.86 65.83 25.01C65.77 25.13 65.71 25.25 65.63 25.36L62.16 30.46C62.11 30.54 62.05 30.61 61.98 30.67C61.9 30.73 61.81 30.77 61.71 30.76L60.96 30.76L60.96 23.42L61.96 23.42L61.96 28.65C61.96 28.8 61.96 28.96 61.96 29.11C61.96 29.27 61.96 29.45 61.96 29.62C62.02 29.47 62.08 29.32 62.15 29.18C62.21 29.06 62.28 28.94 62.35 28.82L65.82 23.72C65.87 23.64 65.93 23.57 66 23.51C66.08 23.45 66.17 23.41 66.27 23.42L67.02 23.42Z" fill="#0A8E00" fill-opacity="1.000000" fill-rule="nonzero"/>
		<path id="Vector" d="M74.66 25.57C74.94 25.56 75.21 25.59 75.48 25.66C75.69 25.71 75.88 25.8 76.06 25.93C76.2 26.03 76.31 26.17 76.38 26.32C76.45 26.47 76.48 26.64 76.48 26.8C76.5 26.92 76.5 27.04 76.48 27.16C76.45 27.29 76.4 27.41 76.32 27.52C76.24 27.64 76.13 27.74 76 27.83C75.85 27.92 75.69 28 75.51 28.04C75.85 28.08 76.17 28.22 76.43 28.45C76.54 28.56 76.62 28.69 76.68 28.83C76.73 28.97 76.76 29.12 76.75 29.27C76.76 29.5 76.71 29.73 76.6 29.94C76.5 30.12 76.36 30.28 76.19 30.4C76 30.53 75.79 30.63 75.56 30.68C75.32 30.75 75.06 30.78 74.8 30.78L72.78 30.78L72.78 25.57L74.66 25.57ZM73.63 26.18L73.63 27.81L74.66 27.81C74.8 27.84 74.94 27.84 75.08 27.81C75.21 27.77 75.32 27.71 75.42 27.63C75.51 27.55 75.59 27.45 75.64 27.34C75.69 27.23 75.71 27.11 75.71 26.99C75.73 26.9 75.73 26.8 75.71 26.71C75.67 26.62 75.61 26.53 75.54 26.47C75.44 26.39 75.33 26.33 75.22 26.3C75.05 26.27 74.89 26.27 74.72 26.3L73.63 26.18ZM74.75 30.16C75.04 30.17 75.33 30.09 75.56 29.93C75.66 29.85 75.74 29.75 75.79 29.63C75.84 29.52 75.86 29.4 75.86 29.27C75.88 29.16 75.88 29.05 75.86 28.94C75.82 28.84 75.75 28.75 75.67 28.68C75.57 28.59 75.45 28.53 75.32 28.5C75.15 28.48 74.98 28.48 74.8 28.5L73.67 28.5L73.67 30.23L74.75 30.16Z" fill="#0A8E00" fill-opacity="1.000000" fill-rule="nonzero"/>
		<path id="Vector" d="M78.48 26.3C78.75 26.03 79.07 25.82 79.42 25.67C79.77 25.54 80.14 25.47 80.52 25.47C80.79 25.47 81.05 25.52 81.3 25.62C81.51 25.71 81.71 25.85 81.87 26.02C82.03 26.2 82.15 26.41 82.22 26.64C82.3 26.9 82.34 27.17 82.34 27.44L82.34 30.72L81.92 30.72C81.86 30.74 81.79 30.74 81.72 30.72C81.66 30.68 81.62 30.62 81.6 30.55L81.5 30.06L81.1 30.39C80.97 30.49 80.83 30.57 80.68 30.64C80.53 30.71 80.38 30.77 80.22 30.8C80.03 30.82 79.85 30.82 79.67 30.8C79.48 30.8 79.28 30.78 79.1 30.72C78.93 30.67 78.77 30.58 78.63 30.47C78.49 30.35 78.38 30.21 78.31 30.04C78.23 29.85 78.19 29.64 78.19 29.43C78.19 29.22 78.25 29.02 78.36 28.84C78.5 28.62 78.69 28.45 78.91 28.33C79.25 28.19 79.62 28.1 79.99 28.07C80.49 27.96 80.99 27.91 81.5 27.91L81.5 27.49C81.52 27.17 81.43 26.84 81.23 26.58C81.13 26.47 81.01 26.39 80.88 26.34C80.74 26.28 80.6 26.26 80.46 26.27C80.26 26.26 80.07 26.29 79.88 26.35C79.74 26.4 79.61 26.46 79.48 26.54L79.19 26.72C79.12 26.77 79.04 26.8 78.95 26.8C78.9 26.82 78.84 26.82 78.79 26.8C78.73 26.75 78.68 26.68 78.66 26.6L78.48 26.3ZM81.46 28.42C81.09 28.43 80.73 28.47 80.38 28.53C80.12 28.57 79.88 28.64 79.64 28.74C79.48 28.81 79.34 28.91 79.23 29.05C79.15 29.16 79.11 29.3 79.11 29.43C79.11 29.56 79.13 29.68 79.18 29.79C79.22 29.89 79.28 29.97 79.36 30.03C79.45 30.1 79.54 30.14 79.64 30.16C79.75 30.18 79.87 30.18 79.98 30.16C80.12 30.18 80.27 30.18 80.42 30.16C80.55 30.13 80.67 30.08 80.79 30.02C80.91 29.95 81.03 29.88 81.14 29.79C81.25 29.7 81.36 29.6 81.46 29.5L81.46 28.42Z" fill="#0A8E00" fill-opacity="1.000000" fill-rule="nonzero"/>
		<path id="Vector" d="M91.51 25.57L91.51 30.72L84.47 30.72L84.47 25.57L85.39 25.57L85.39 30.08L87.52 30.08L87.52 25.57L88.44 25.57L88.44 30.08L90.58 30.08L90.58 25.57L91.51 25.57Z" fill="#0A8E00" fill-opacity="1.000000" fill-rule="nonzero"/>
		<path id="Vector" d="M93.55 26.3C93.82 26.03 94.13 25.82 94.48 25.67C94.83 25.54 95.21 25.47 95.59 25.47C95.85 25.47 96.12 25.52 96.36 25.62C96.58 25.71 96.78 25.85 96.94 26.02C97.09 26.2 97.21 26.41 97.28 26.64C97.36 26.9 97.4 27.17 97.4 27.44L97.4 30.72L96.99 30.72C96.92 30.74 96.85 30.74 96.79 30.72C96.73 30.68 96.7 30.62 96.68 30.55L96.58 30.06L96.18 30.39C95.91 30.59 95.61 30.72 95.3 30.79C95.11 30.81 94.93 30.81 94.75 30.79C94.55 30.79 94.36 30.76 94.18 30.71C94 30.66 93.85 30.57 93.71 30.46C93.57 30.34 93.46 30.2 93.39 30.03C93.31 29.84 93.27 29.63 93.27 29.42C93.27 29.21 93.33 29 93.44 28.82C93.58 28.61 93.77 28.44 93.99 28.32C94.3 28.15 94.64 28.03 94.99 27.96C95.48 27.86 95.99 27.8 96.5 27.8L96.5 27.39C96.52 27.06 96.43 26.73 96.23 26.47C96.13 26.36 96.01 26.28 95.88 26.23C95.74 26.18 95.6 26.15 95.46 26.17C95.26 26.16 95.07 26.19 94.88 26.25C94.74 26.29 94.61 26.36 94.48 26.43L94.19 26.62C94.12 26.67 94.04 26.7 93.95 26.7C93.9 26.71 93.84 26.71 93.79 26.7C93.75 26.66 93.71 26.62 93.68 26.58L93.55 26.3ZM96.52 28.42C96.16 28.43 95.8 28.47 95.44 28.53C95.19 28.57 94.94 28.64 94.71 28.74C94.55 28.81 94.4 28.91 94.3 29.05C94.22 29.16 94.17 29.3 94.18 29.43C94.17 29.56 94.19 29.68 94.24 29.79C94.28 29.89 94.35 29.97 94.43 30.03C94.51 30.1 94.61 30.14 94.71 30.16C94.82 30.18 94.93 30.18 95.04 30.16C95.19 30.18 95.34 30.18 95.48 30.16C95.61 30.13 95.74 30.08 95.86 30.02C95.98 29.95 96.09 29.88 96.2 29.79C96.32 29.7 96.42 29.6 96.52 29.5L96.52 28.42Z" fill="#0A8E00" fill-opacity="1.000000" fill-rule="nonzero"/>
		<path id="Vector" d="M107.24 26.27L105.24 26.27L105.24 30.72L104.32 30.72L104.32 26.27L102.31 26.27L102.31 25.57L107.24 25.57L107.24 26.27Z" fill="#0A8E00" fill-opacity="1.000000" fill-rule="nonzero"/>
		<path id="Vector" d="M112.87 30.04C112.75 30.19 112.61 30.31 112.45 30.4C112.3 30.51 112.13 30.59 111.95 30.66C111.77 30.72 111.58 30.77 111.39 30.8C111.2 30.82 111.01 30.82 110.81 30.8C110.47 30.8 110.13 30.74 109.81 30.62C109.52 30.5 109.25 30.32 109.03 30.08C108.8 29.83 108.62 29.53 108.51 29.21C108.38 28.82 108.31 28.42 108.32 28.01C108.32 27.66 108.38 27.32 108.49 26.99C108.6 26.69 108.76 26.41 108.97 26.17C109.19 25.93 109.45 25.75 109.75 25.62C110.07 25.48 110.42 25.42 110.77 25.42C111.07 25.42 111.37 25.47 111.64 25.58C111.9 25.68 112.14 25.84 112.33 26.03C112.54 26.24 112.69 26.49 112.79 26.76C112.9 27.08 112.95 27.41 112.95 27.75C112.97 27.84 112.97 27.94 112.95 28.04C112.93 28.06 112.9 28.08 112.87 28.09C112.84 28.11 112.81 28.11 112.77 28.11L109.24 28.11C109.24 28.4 109.29 28.69 109.37 28.97C109.44 29.19 109.56 29.4 109.71 29.58C109.85 29.74 110.03 29.86 110.23 29.94C110.44 30.02 110.67 30.06 110.89 30.06C111.1 30.06 111.3 30.04 111.49 29.98C111.64 29.93 111.78 29.87 111.92 29.81L112.23 29.63C112.29 29.59 112.36 29.56 112.44 29.55C112.48 29.55 112.51 29.56 112.54 29.58C112.57 29.59 112.6 29.62 112.61 29.65L112.87 30.04ZM112.12 27.6C112.12 27.4 112.09 27.2 112.03 27.02C111.97 26.85 111.88 26.7 111.76 26.56C111.64 26.44 111.5 26.34 111.33 26.27C111.07 26.17 110.77 26.14 110.49 26.19C110.2 26.24 109.94 26.36 109.72 26.55C109.45 26.84 109.28 27.22 109.24 27.61L112.12 27.6Z" fill="#0A8E00" fill-opacity="1.000000" fill-rule="nonzero"/>
		<path id="Vector" d="M119.03 30.72L118.15 30.72C118.09 30.74 118.03 30.74 117.97 30.72C117.93 30.68 117.9 30.64 117.87 30.59L116.53 28.54L116.53 28.69C116.54 28.73 116.54 28.77 116.53 28.81L115.32 30.59L115.21 30.72C115.16 30.74 115.11 30.74 115.05 30.72L114.12 30.72L115.99 28.07L114.23 25.53L115.11 25.53C115.16 25.51 115.22 25.51 115.27 25.53C115.31 25.56 115.34 25.59 115.36 25.63L116.69 27.59C116.72 27.48 116.77 27.38 116.83 27.29L117.95 25.65L118.05 25.53C118.1 25.51 118.14 25.51 118.19 25.53L119.03 25.53L117.2 28.07L119.03 30.72Z" fill="#0A8E00" fill-opacity="1.000000" fill-rule="nonzero"/>
		<path id="Vector" d="M124.95 25.57L124.95 30.72L123.99 30.72L123.99 28.34L121.52 28.34L121.52 30.72L120.6 30.72L120.6 25.57L121.52 25.57L121.52 27.64L123.99 27.64L123.99 25.57L124.95 25.57Z" fill="#0A8E00" fill-opacity="1.000000" fill-rule="nonzero"/>
		<path id="Vector" d="M131.61 25.57L131.61 30.72L130.65 30.72L130.65 27.24C130.65 27.18 130.65 27.1 130.65 27.02C130.65 26.94 130.65 26.86 130.65 26.78L130.56 26.96L130.47 27.12L127.99 30.55L127.84 30.71C127.79 30.76 127.72 30.79 127.65 30.79L127.09 30.79L127.09 25.58L128.01 25.58L128.01 29.11C128.01 29.11 128.01 29.25 128.01 29.33C128.01 29.41 128.01 29.49 128.01 29.57L128.11 29.38L128.2 29.22L130.72 25.81C130.76 25.75 130.81 25.69 130.87 25.65C130.92 25.6 130.98 25.57 131.05 25.57L131.61 25.57Z" fill="#0A8E00" fill-opacity="1.000000" fill-rule="nonzero"/>
		<path id="Vector" d="M136.96 25.82C137.01 25.74 137.07 25.68 137.15 25.63C137.22 25.59 137.31 25.57 137.4 25.57L138.12 25.57L136.79 27.55C136.72 27.66 136.63 27.76 136.53 27.85C136.44 27.94 136.32 28 136.2 28.04C136.35 28.08 136.49 28.15 136.61 28.25C136.73 28.35 136.84 28.47 136.92 28.61L138.25 30.76L137.61 30.76C137.49 30.77 137.37 30.75 137.26 30.69C137.15 30.64 137.06 30.55 137 30.44L135.99 28.84C135.91 28.71 135.81 28.6 135.68 28.53C135.55 28.46 135.4 28.43 135.25 28.44L134.65 28.44L134.65 30.72L133.73 30.72L133.73 25.57L134.65 25.57L134.65 27.83L135.15 27.83C135.27 27.83 135.4 27.8 135.51 27.74C135.62 27.68 135.72 27.59 135.79 27.48L136.96 25.82Z" fill="#0A8E00" fill-opacity="1.000000" fill-rule="nonzero"/>
		<path id="Vector" d="M139.72 26.3C139.99 26.03 140.3 25.82 140.65 25.67C141 25.54 141.38 25.47 141.76 25.47C142.02 25.47 142.29 25.52 142.53 25.62C142.75 25.71 142.95 25.85 143.11 26.02C143.26 26.2 143.38 26.41 143.45 26.64C143.53 26.9 143.57 27.17 143.57 27.44L143.57 30.72L143.16 30.72C143.09 30.74 143.02 30.74 142.96 30.72C142.9 30.68 142.87 30.62 142.85 30.55L142.75 30.06L142.35 30.39C142.09 30.59 141.78 30.72 141.47 30.79C141.28 30.81 141.1 30.81 140.92 30.79C140.73 30.79 140.53 30.76 140.35 30.71C140.17 30.66 140.02 30.57 139.88 30.46C139.74 30.34 139.63 30.2 139.56 30.03C139.48 29.84 139.44 29.63 139.44 29.42C139.44 29.21 139.5 29 139.61 28.82C139.75 28.61 139.94 28.44 140.16 28.32C140.47 28.15 140.81 28.03 141.16 27.96C141.65 27.86 142.16 27.8 142.67 27.8L142.67 27.39C142.69 27.06 142.6 26.73 142.4 26.47C142.3 26.36 142.18 26.28 142.05 26.23C141.91 26.18 141.77 26.15 141.63 26.17C141.43 26.16 141.24 26.19 141.05 26.25C140.91 26.29 140.78 26.36 140.65 26.43L140.36 26.62C140.29 26.67 140.21 26.7 140.12 26.7C140.07 26.71 140.01 26.71 139.96 26.7C139.92 26.66 139.88 26.62 139.85 26.58L139.72 26.3ZM142.69 28.42C142.33 28.43 141.97 28.47 141.61 28.53C141.36 28.57 141.11 28.64 140.88 28.74C140.72 28.81 140.58 28.91 140.47 29.05C140.39 29.16 140.34 29.3 140.35 29.43C140.34 29.56 140.37 29.68 140.41 29.79C140.46 29.89 140.52 29.97 140.6 30.03C140.68 30.1 140.78 30.14 140.88 30.16C140.99 30.18 141.1 30.18 141.21 30.16C141.36 30.18 141.51 30.18 141.65 30.16C141.78 30.13 141.91 30.08 142.03 30.02C142.15 29.95 142.26 29.88 142.37 29.79C142.49 29.7 142.59 29.6 142.69 29.5L142.69 28.42Z" fill="#0A8E00" fill-opacity="1.000000" fill-rule="nonzero"/>
		<path id="Vector" d="M153.56 25.57L153.56 30.72L152.64 30.72L152.64 27.24C152.64 27.18 152.64 27.1 152.64 27.02C152.64 26.94 152.64 26.86 152.64 26.78L152.55 26.96L152.45 27.12L149.93 30.54L149.78 30.7C149.74 30.74 149.67 30.77 149.6 30.78L149.04 30.78L149.04 25.58L149.96 25.58L149.96 29.11C149.96 29.11 149.96 29.25 149.96 29.33C149.96 29.41 149.96 29.49 149.96 29.57L150.05 29.38L150.14 29.22L152.67 25.81C152.71 25.75 152.76 25.69 152.81 25.65C152.86 25.6 152.93 25.57 153 25.57L153.56 25.57Z" fill="#0A8E00" fill-opacity="1.000000" fill-rule="nonzero"/>
		<path id="Vector" d="M159.37 26.5L159.29 26.59C159.26 26.6 159.22 26.6 159.18 26.59C159.13 26.61 159.07 26.61 159.01 26.59L158.78 26.44L158.45 26.3C158.06 26.19 157.65 26.21 157.28 26.36C157.08 26.46 156.91 26.59 156.78 26.76C156.65 26.95 156.55 27.16 156.49 27.39C156.42 27.66 156.38 27.93 156.39 28.21C156.38 28.49 156.42 28.78 156.49 29.05C156.55 29.27 156.66 29.48 156.8 29.66C156.92 29.82 157.09 29.96 157.28 30.04C157.47 30.13 157.69 30.18 157.9 30.18C158.23 30.19 158.54 30.1 158.81 29.93L159.05 29.75C159.1 29.7 159.17 29.68 159.24 29.67C159.27 29.67 159.31 29.68 159.34 29.7C159.37 29.71 159.39 29.74 159.41 29.77L159.66 30.1C159.55 30.24 159.42 30.36 159.28 30.46C159.13 30.56 158.98 30.64 158.81 30.71C158.64 30.78 158.47 30.82 158.29 30.86C158.11 30.87 157.92 30.87 157.73 30.86C157.42 30.86 157.11 30.79 156.83 30.67C156.55 30.55 156.3 30.37 156.09 30.15C155.88 29.91 155.71 29.62 155.61 29.31C155.39 28.6 155.39 27.83 155.61 27.11C155.71 26.8 155.88 26.51 156.09 26.26C156.3 26.02 156.57 25.83 156.87 25.7C157.2 25.56 157.56 25.49 157.92 25.5C158.25 25.49 158.58 25.55 158.89 25.67C159.17 25.79 159.42 25.96 159.64 26.18L159.37 26.5Z" fill="#0A8E00" fill-opacity="1.000000" fill-rule="nonzero"/>
		<path id="Vector" d="M165.74 30.72L164.82 30.72L164.82 26.27L162.32 26.27L162.32 30.72L161.32 30.72L161.32 25.57L165.68 25.57L165.74 30.72Z" fill="#0A8E00" fill-opacity="1.000000" fill-rule="nonzero"/>
		<path id="Vector" d="M168.8 26.38C169.01 26.12 169.27 25.89 169.56 25.73C169.86 25.56 170.2 25.47 170.54 25.47C170.83 25.47 171.11 25.53 171.37 25.65C171.62 25.76 171.83 25.94 172 26.15C172.18 26.4 172.32 26.69 172.4 26.99C172.49 27.36 172.54 27.75 172.53 28.13C172.53 28.5 172.48 28.86 172.37 29.21C172.28 29.52 172.13 29.81 171.93 30.07C171.73 30.32 171.48 30.52 171.2 30.66C170.91 30.79 170.59 30.86 170.28 30.86C169.99 30.86 169.71 30.81 169.45 30.7C169.22 30.59 169.02 30.43 168.85 30.24L168.85 32.54L167.93 32.54L167.93 25.57L168.48 25.57C168.53 25.56 168.59 25.58 168.63 25.61C168.68 25.65 168.71 25.7 168.72 25.75L168.8 26.38ZM168.8 29.53C168.94 29.73 169.12 29.89 169.34 30C169.55 30.1 169.78 30.14 170.01 30.14C170.23 30.15 170.44 30.11 170.63 30.02C170.83 29.93 171 29.79 171.13 29.62C171.41 29.18 171.55 28.67 171.52 28.14C171.52 27.85 171.49 27.56 171.42 27.27C171.37 27.05 171.28 26.85 171.16 26.67C171.05 26.52 170.91 26.4 170.74 26.32C170.57 26.25 170.38 26.21 170.18 26.22C169.91 26.21 169.64 26.28 169.4 26.42C169.15 26.57 168.94 26.77 168.77 27L168.8 29.53Z" fill="#0A8E00" fill-opacity="1.000000" fill-rule="nonzero"/>
		<path id="Vector" d="M174.29 26.3C174.56 26.03 174.88 25.82 175.22 25.67C175.58 25.54 175.95 25.47 176.33 25.47C176.6 25.47 176.86 25.52 177.1 25.62C177.32 25.71 177.52 25.85 177.68 26.02C177.84 26.2 177.95 26.41 178.02 26.64C178.1 26.9 178.14 27.17 178.14 27.44L178.14 30.72L177.73 30.72C177.66 30.74 177.6 30.74 177.53 30.72C177.47 30.68 177.43 30.62 177.41 30.55L177.3 30.06L176.9 30.39C176.78 30.49 176.64 30.57 176.49 30.64C176.34 30.71 176.18 30.77 176.02 30.8C175.84 30.82 175.66 30.82 175.48 30.8C175.28 30.8 175.09 30.78 174.9 30.72C174.73 30.67 174.57 30.58 174.44 30.47C174.3 30.35 174.19 30.21 174.12 30.04C174.03 29.85 173.99 29.64 174 29.43C174 29.22 174.06 29.02 174.17 28.84C174.31 28.62 174.5 28.45 174.72 28.33C175.03 28.16 175.37 28.04 175.72 27.97C176.21 27.87 176.72 27.82 177.22 27.81L177.22 27.4C177.25 27.07 177.16 26.75 176.96 26.48C176.86 26.38 176.74 26.3 176.61 26.24C176.47 26.19 176.33 26.17 176.18 26.18C175.99 26.17 175.8 26.2 175.61 26.26C175.47 26.31 175.34 26.37 175.21 26.44L174.92 26.63C174.85 26.68 174.76 26.71 174.68 26.71C174.63 26.73 174.57 26.73 174.52 26.71C174.47 26.68 174.43 26.64 174.4 26.59L174.29 26.3ZM177.26 28.42C176.9 28.43 176.54 28.47 176.18 28.53C175.93 28.57 175.69 28.64 175.45 28.74C175.29 28.81 175.15 28.91 175.04 29.05C174.96 29.16 174.92 29.3 174.92 29.43C174.91 29.56 174.94 29.68 174.98 29.79C175.03 29.89 175.09 29.97 175.17 30.03C175.25 30.1 175.35 30.14 175.45 30.16C175.56 30.18 175.67 30.18 175.78 30.16C175.93 30.18 176.08 30.18 176.22 30.16C176.35 30.13 176.48 30.08 176.6 30.02C176.72 29.95 176.84 29.88 176.94 29.79C177.06 29.7 177.16 29.6 177.26 29.5L177.26 28.42Z" fill="#0A8E00" fill-opacity="1.000000" fill-rule="nonzero"/>
		<path id="Vector" d="M182.18 25.57C182.46 25.56 182.74 25.59 183.01 25.66C183.22 25.71 183.41 25.8 183.58 25.93C183.72 26.03 183.83 26.17 183.9 26.32C183.97 26.47 184.01 26.64 184.01 26.8C184.02 26.92 184.02 27.04 184.01 27.16C183.98 27.29 183.92 27.41 183.85 27.52C183.76 27.64 183.65 27.74 183.53 27.83C183.38 27.92 183.21 28 183.04 28.04C183.38 28.08 183.7 28.22 183.96 28.45C184.06 28.56 184.15 28.69 184.2 28.83C184.26 28.97 184.28 29.12 184.28 29.27C184.29 29.5 184.24 29.73 184.13 29.94C184.03 30.12 183.89 30.28 183.72 30.4C183.53 30.53 183.31 30.63 183.09 30.68C182.84 30.75 182.59 30.78 182.33 30.78L180.32 30.78L180.32 25.57L182.18 25.57ZM181.16 26.18L181.16 27.81L182.16 27.81C182.3 27.84 182.44 27.84 182.58 27.81C182.71 27.77 182.82 27.71 182.92 27.63C183.01 27.55 183.09 27.45 183.14 27.34C183.19 27.23 183.21 27.11 183.21 26.99C183.23 26.9 183.23 26.8 183.21 26.71C183.17 26.62 183.11 26.53 183.04 26.47C182.94 26.39 182.83 26.33 182.72 26.3C182.55 26.27 182.39 26.27 182.22 26.3L181.16 26.18ZM182.28 30.16C182.57 30.17 182.85 30.09 183.09 29.93C183.19 29.85 183.26 29.75 183.31 29.63C183.36 29.52 183.39 29.4 183.38 29.27C183.4 29.16 183.4 29.05 183.38 28.94C183.34 28.84 183.28 28.75 183.2 28.68C183.1 28.59 182.98 28.53 182.85 28.5C182.68 28.48 182.5 28.48 182.33 28.5L181.2 28.5L181.2 30.23L182.28 30.16Z" fill="#0A8E00" fill-opacity="1.000000" fill-rule="nonzero"/>
		<path id="Vector" d="M190.48 25.57L190.48 30.72L189.56 30.72L189.56 28.34L187.05 28.34L187.05 30.72L186.13 30.72L186.13 25.57L187.05 25.57L187.05 27.64L189.56 27.64L189.56 25.57L190.48 25.57Z" fill="#0A8E00" fill-opacity="1.000000" fill-rule="nonzero"/>
		<path id="Vector" d="M192.52 26.3C192.78 26.03 193.1 25.82 193.45 25.67C193.8 25.54 194.18 25.47 194.56 25.47C194.82 25.47 195.08 25.52 195.33 25.62C195.55 25.71 195.74 25.85 195.9 26.02C196.06 26.2 196.18 26.41 196.25 26.64C196.33 26.9 196.37 27.17 196.37 27.44L196.37 30.72L195.98 30.72C195.92 30.74 195.85 30.74 195.78 30.72C195.72 30.68 195.68 30.62 195.66 30.55L195.56 30.06L195.16 30.39C194.9 30.59 194.59 30.72 194.28 30.79C194.09 30.81 193.91 30.81 193.73 30.79C193.54 30.79 193.34 30.76 193.16 30.71C192.99 30.66 192.83 30.57 192.69 30.46C192.55 30.34 192.44 30.2 192.37 30.03C192.29 29.84 192.25 29.63 192.25 29.42C192.25 29.21 192.31 29 192.42 28.82C192.56 28.61 192.75 28.44 192.97 28.32C193.28 28.15 193.62 28.03 193.97 27.96C194.46 27.86 194.97 27.8 195.48 27.8L195.48 27.39C195.5 27.06 195.41 26.73 195.21 26.47C195.11 26.36 194.99 26.28 194.86 26.23C194.72 26.18 194.58 26.15 194.44 26.17C194.24 26.16 194.05 26.19 193.86 26.25C193.72 26.29 193.59 26.36 193.46 26.43L193.17 26.62C193.1 26.67 193.02 26.7 192.93 26.7C192.88 26.71 192.82 26.71 192.77 26.7C192.72 26.66 192.68 26.62 192.65 26.58L192.52 26.3ZM195.49 28.42C195.13 28.43 194.77 28.47 194.41 28.53C194.16 28.57 193.91 28.64 193.68 28.74C193.51 28.81 193.37 28.91 193.26 29.05C193.18 29.16 193.14 29.3 193.14 29.43C193.14 29.56 193.16 29.68 193.21 29.79C193.25 29.89 193.32 29.97 193.4 30.03C193.48 30.1 193.57 30.14 193.68 30.16C193.79 30.18 193.9 30.18 194.01 30.16C194.16 30.18 194.3 30.18 194.45 30.16C194.58 30.13 194.7 30.08 194.82 30.02C194.95 29.95 195.06 29.88 195.17 29.79C195.28 29.7 195.39 29.6 195.49 29.5L195.49 28.42Z" fill="#0A8E00" fill-opacity="1.000000" fill-rule="nonzero"/>
		<path id="Vector" d="M198.5 30.22C198.49 30.13 198.49 30.05 198.5 29.97C198.53 29.89 198.58 29.82 198.64 29.77C198.69 29.71 198.76 29.66 198.84 29.63C198.92 29.62 199.01 29.62 199.09 29.63C199.17 29.62 199.26 29.62 199.34 29.63C199.5 29.7 199.62 29.82 199.69 29.98C199.72 30.06 199.74 30.14 199.74 30.23C199.74 30.32 199.72 30.4 199.69 30.48C199.66 30.56 199.61 30.62 199.56 30.68C199.5 30.74 199.43 30.79 199.35 30.82C199.27 30.85 199.19 30.87 199.1 30.87C199.02 30.88 198.93 30.88 198.85 30.87C198.77 30.84 198.7 30.79 198.64 30.73C198.58 30.67 198.53 30.6 198.5 30.52C198.48 30.42 198.48 30.32 198.5 30.22ZM199.6 23.42L199.6 26.35C199.6 26.51 199.6 26.66 199.6 26.8C199.6 26.95 199.6 27.1 199.6 27.24C199.6 27.39 199.6 27.55 199.6 27.69C199.6 27.84 199.6 28.01 199.6 28.2L198.98 28.2C198.98 28.03 198.98 27.85 198.98 27.69C198.98 27.53 198.98 27.39 198.98 27.24C198.98 27.1 198.98 26.95 198.98 26.8C198.98 26.66 198.98 26.51 198.98 26.35L198.98 23.42L199.6 23.42Z" fill="#0A8E00" fill-opacity="1.000000" fill-rule="nonzero"/>
	</g>
</svg>
